<svg xmlns="http://www.w3.org/2000/svg" width="16.282" height="17.9"><path data-name="icon_q.svg" d="M13.98 14a8.583 8.583 0 001.86-5.7 8.143 8.143 0 00-2.921-6.6 8.251 8.251 0 00-5-1.7 8.35 8.35 0 000 16.7 8.447 8.447 0 004.1-1.1l2.481 2.3 1.78-1.8zm-2.561-2.3l-2.24-2.1-1.741 1.8 2.121 2a4.512 4.512 0 01-1.641.3 3.953 3.953 0 01-3.3-1.7 6.141 6.141 0 01-.921-3.6 6.459 6.459 0 01.921-3.7 4.054 4.054 0 016.6 0 6.148 6.148 0 01.92 3.6 6.725 6.725 0 01-.719 3.4z" fill="#00879d" fill-rule="evenodd"/></svg>